# Blender v2.77 (sub 0) OBJ File: 'unit_arrow.blend'
# www.blender.org
mtllib unit_arrow.mtl
o Cylinder
v -0.000000 0.002744 0.047140
v -0.000000 0.795331 0.047140
v -0.033333 0.002744 0.033333
v -0.033333 0.795331 0.033333
v -0.047140 0.002744 0.000001
v -0.047140 0.795331 -0.000000
v -0.033333 0.002744 -0.033332
v -0.033333 0.795331 -0.033333
v -0.000000 0.002744 -0.047139
v -0.000000 0.795331 -0.047140
v 0.033333 0.002744 -0.033332
v 0.033333 0.795331 -0.033333
v 0.047140 0.002744 0.000001
v 0.047140 0.795331 -0.000000
v 0.033333 0.002744 0.033333
v 0.033333 0.795331 0.033333
v -0.000000 0.795331 0.094279
v -0.066666 0.795331 0.066665
v -0.094279 0.795331 -0.000000
v -0.066666 0.795331 -0.066666
v -0.000000 0.795331 -0.094279
v 0.066665 0.795331 -0.066666
v 0.094279 0.795331 -0.000000
v 0.066665 0.795331 0.066665
v -0.000000 0.814187 0.094279
v -0.066666 0.814187 0.066665
v -0.094279 0.814187 -0.000000
v -0.066666 0.814187 -0.066666
v -0.000000 0.814187 -0.094279
v 0.066665 0.814187 -0.066666
v 0.094279 0.814187 -0.000000
v 0.066665 0.814187 0.066665
v -0.000000 1.002745 0.014142
v -0.010000 1.002745 0.010000
v -0.014142 1.002745 -0.000000
v -0.010000 1.002745 -0.010000
v -0.000000 1.002745 -0.014142
v 0.010000 1.002745 -0.010000
v 0.014142 1.002745 -0.000000
v 0.010000 1.002745 0.009999
vt 0.6933 0.7491
vt 0.7292 0.0328
vt 0.6883 0.0592
vt 0.7478 0.7223
vt 0.6605 0.0081
vt 0.6561 0.6971
vt 0.5212 0.0000
vt 0.4696 0.6887
vt 0.3949 0.0136
vt 0.3012 0.7024
vt 0.3569 0.0404
vt 0.2518 0.7296
vt 0.4274 0.0645
vt 0.4390 0.6501
vt 0.5638 0.0723
vt 0.3465 0.7541
vt 0.9974 0.7187
vt 0.8184 0.6896
vt 0.8172 0.6674
vt 0.5279 0.7621
vt 0.1977 0.7815
vt 0.5557 0.7970
vt 0.0053 0.7332
vt 0.0991 0.6783
vt 0.8833 0.7718
vt 0.4729 0.9788
vt 0.4370 0.6723
vt 0.0944 0.7004
vt 0.1940 0.8034
vt 1.0000 0.7408
vt 0.5548 0.8188
vt 0.8850 0.7937
vt 0.0000 0.7552
vt 0.4321 0.9976
vt 0.4180 0.9826
vt 0.5469 0.9962
vt 0.4012 0.9905
vt 0.4923 1.0000
vt 0.5642 0.9884
vt 0.5337 0.9812
vn -0.3827 0.0000 0.9239
vn -0.9239 0.0000 0.3827
vn -0.9239 -0.0000 -0.3827
vn -0.3827 -0.0000 -0.9239
vn 0.3827 -0.0000 -0.9239
vn 0.9239 -0.0000 -0.3827
vn -0.0000 -1.0000 0.0000
vn 0.3827 0.0000 0.9239
vn 0.9239 0.0000 0.3827
vn -0.8600 0.3655 -0.3562
vn 0.0000 1.0000 0.0000
vn 0.3562 0.3655 -0.8600
vn 0.8600 0.3655 0.3562
vn -0.8600 0.3655 0.3562
vn -0.3562 0.3655 -0.8600
vn 0.8600 0.3655 -0.3562
vn -0.3562 0.3655 0.8600
vn 0.3562 0.3655 0.8600
usemtl None
s off
f 2/1/1 3/2/1 1/3/1
f 4/4/2 5/5/2 3/2/2
f 6/6/3 7/7/3 5/5/3
f 8/8/4 9/9/4 7/7/4
f 10/10/5 11/11/5 9/9/5
f 12/12/6 13/13/6 11/11/6
f 6/6/7 20/14/7 8/8/7
f 15/15/8 2/1/8 1/3/8
f 14/16/9 15/15/9 13/13/9
f 7/7/7 11/11/7 15/15/7
f 18/17/2 27/18/2 19/19/2
f 16/20/7 23/21/7 24/22/7
f 6/6/7 18/17/7 19/19/7
f 12/12/7 23/21/7 14/16/7
f 10/10/7 22/23/7 12/12/7
f 10/10/7 20/14/7 21/24/7
f 16/20/7 17/25/7 2/1/7
f 2/1/7 18/17/7 4/4/7
f 27/18/10 36/26/10 28/27/10
f 20/14/4 29/28/4 21/24/4
f 22/23/6 31/29/6 23/21/6
f 17/25/1 26/30/1 18/17/1
f 17/25/8 32/31/8 25/32/8
f 19/19/3 28/27/3 20/14/3
f 21/24/5 30/33/5 22/23/5
f 23/21/9 32/31/9 24/22/9
f 39/34/11 37/35/11 33/36/11
f 29/28/12 38/37/12 30/33/12
f 32/31/13 39/34/13 40/38/13
f 27/18/14 34/39/14 35/40/14
f 29/28/15 36/26/15 37/35/15
f 30/33/16 39/34/16 31/29/16
f 25/32/17 34/39/17 26/30/17
f 32/31/18 33/36/18 25/32/18
f 2/1/1 4/4/1 3/2/1
f 4/4/2 6/6/2 5/5/2
f 6/6/3 8/8/3 7/7/3
f 8/8/4 10/10/4 9/9/4
f 10/10/5 12/12/5 11/11/5
f 12/12/6 14/16/6 13/13/6
f 6/6/7 19/19/7 20/14/7
f 15/15/8 16/20/8 2/1/8
f 14/16/9 16/20/9 15/15/9
f 15/15/7 1/3/7 7/7/7
f 3/2/7 5/5/7 7/7/7
f 7/7/7 9/9/7 11/11/7
f 11/11/7 13/13/7 15/15/7
f 1/3/7 3/2/7 7/7/7
f 18/17/2 26/30/2 27/18/2
f 16/20/7 14/16/7 23/21/7
f 6/6/7 4/4/7 18/17/7
f 12/12/7 22/23/7 23/21/7
f 10/10/7 21/24/7 22/23/7
f 10/10/7 8/8/7 20/14/7
f 16/20/7 24/22/7 17/25/7
f 2/1/7 17/25/7 18/17/7
f 27/18/10 35/40/10 36/26/10
f 20/14/4 28/27/4 29/28/4
f 22/23/6 30/33/6 31/29/6
f 17/25/1 25/32/1 26/30/1
f 17/25/8 24/22/8 32/31/8
f 19/19/3 27/18/3 28/27/3
f 21/24/5 29/28/5 30/33/5
f 23/21/9 31/29/9 32/31/9
f 35/40/11 34/39/11 33/36/11
f 33/36/11 40/38/11 39/34/11
f 39/34/11 38/37/11 37/35/11
f 37/35/11 36/26/11 35/40/11
f 35/40/11 33/36/11 37/35/11
f 29/28/12 37/35/12 38/37/12
f 32/31/13 31/29/13 39/34/13
f 27/18/14 26/30/14 34/39/14
f 29/28/15 28/27/15 36/26/15
f 30/33/16 38/37/16 39/34/16
f 25/32/17 33/36/17 34/39/17
f 32/31/18 40/38/18 33/36/18
